<?xml version="1.0" standalone="no"?>
<!DOCTYPE svg PUBLIC "-//W3C//DTD SVG 20010904//EN"
 "http://www.w3.org/TR/2001/REC-SVG-20010904/DTD/svg10.dtd">
<svg version="1.0" xmlns="http://www.w3.org/2000/svg"
 width="500.000000pt" height="500.000000pt" viewBox="0 0 500.000000 500.000000"
 preserveAspectRatio="xMidYMid meet">
<metadata>
Created by potrace 1.14, written by Peter Selinger 2001-2017
</metadata>
<g transform="translate(0.000000,500.000000) scale(0.100000,-0.100000)"
fill="#000000" stroke="none">
<path d="M0 2500 l0 -2500 2500 0 2500 0 0 2500 0 2500 -2500 0 -2500 0 0
-2500z m1943 1333 l36 -78 1 58 0 57 28 -6 c246 -58 468 -177 601 -321 136
-147 232 -372 256 -595 l7 -68 -131 0 c-72 0 -131 3 -131 6 0 32 -47 223 -67
274 -75 187 -207 327 -384 409 -136 63 -150 115 149 -553 147 -327 270 -595
273 -596 4 0 10 21 13 48 4 26 10 62 13 80 l5 32 130 0 129 0 -6 -57 c-12 -94
-51 -234 -96 -338 l-42 -97 38 -86 c21 -48 45 -102 54 -120 l17 -32 464 1030
464 1030 128 0 128 0 0 -67 c0 -38 18 -554 40 -1148 22 -594 40 -1097 40
-1117 l0 -38 -120 0 c-104 0 -120 2 -120 16 0 40 -70 1821 -73 1838 -1 10
-193 -403 -426 -918 l-424 -936 -111 0 -111 0 -75 168 -75 168 -81 -65 c-45
-37 -122 -87 -171 -113 -84 -45 -282 -118 -317 -118 -14 0 -16 15 -16 113 l0
114 88 32 c117 44 204 97 288 174 116 108 137 23 -187 746 -155 347 -285 628
-288 626 -3 -3 -24 -417 -46 -920 -22 -503 -43 -916 -46 -919 -8 -8 -219 -11
-561 -8 l-328 2 0 1185 0 1185 504 0 503 0 36 -77z"/>
<path d="M1155 3679 c-3 -8 -4 -441 -3 -964 l3 -950 203 -3 c111 -1 202 -1
203 0 3 12 85 1914 82 1917 -1 2 -111 6 -243 9 -199 4 -240 2 -245 -9z"/>
</g>
</svg>
